<?xml version="1.0" encoding="UTF-8"?>
<svg width="847px" height="181px" viewBox="0 0 847 181" version="1.1" xmlns="http://www.w3.org/2000/svg" xmlns:xlink="http://www.w3.org/1999/xlink">
    <title>JSOhNo</title>
    <g id="github" stroke="none" stroke-width="1" fill="none" fill-rule="evenodd">
        <g id="JSOhNo" transform="translate(-217.000000, -229.000000)" fill="#FFFFFF" fill-rule="nonzero">
            <path d="M278.29653,410 C320.287066,410 343.695584,387.22409 349.728707,352.817927 L370,237 L317.149842,237 L297.361199,349.910364 C295.913249,358.633053 291.086751,365.901961 281.192429,365.901961 C272.263407,365.901961 267.919558,360.329132 267.919558,352.57563 C267.919558,351.121849 268.160883,349.42577 268.402208,347.971989 L218.206625,347.971989 C217.48265,351.848739 217,355.483193 217,359.117647 C217,389.162465 243.063091,410 278.29653,410 Z M421.023179,409 C465.016556,409 499.582781,384.824176 499.582781,343 C499.582781,321 487.013245,306.494505 462.357616,300.450549 L427.066225,291.747253 C423.923841,291.021978 421.506623,288.846154 421.506623,284.494505 C421.506623,275.307692 429.725166,273.131868 437.701987,273.131868 C448.337748,273.131868 452.44702,277.725275 452.44702,284.736264 C452.44702,286.186813 452.205298,288.120879 451.963576,289.32967 L500.791391,289.32967 C501.516556,285.703297 502,281.835165 502,278.450549 C502,248.472527 472.751656,233 439.877483,233 C394.675497,233 368.086093,255.967033 368.086093,296.098901 C368.086093,319.549451 382.347682,332.604396 408.211921,338.648352 L439.877483,345.901099 C444.470199,346.868132 446.645695,350.252747 446.645695,354.362637 C446.645695,364.032967 436.493377,368.868132 426.34106,368.868132 C412.804636,368.868132 406.278146,363.549451 406.278146,355.087912 C406.278146,353.395604 406.519868,351.703297 407.003311,350.010989 L357.208609,350.010989 C356.483444,353.153846 356,357.747253 356,361.373626 C356,391.10989 380.413907,409 421.023179,409 Z M577.919118,409 C624.507353,409 653.382353,380.230769 661.147059,336.956044 L664.544118,317.857143 C665.272059,313.505495 666,306.010989 666,301.417582 C666,258.384615 632.514706,233 589.566176,233 C542.25,233 514.345588,255.725275 506.095588,302.868132 L502.455882,323.417582 C501.485294,328.736264 501,333.813187 501,339.131868 C501,380.472527 532.058824,409 577.919118,409 Z M579.853659,365 C561.560976,365 554,354.362637 554,338.406593 C554,334.78022 554.731707,330.186813 555.219512,327.527473 L558.878049,306.736264 C562.292683,287.153846 570.097561,277 587.658537,277 C604.731707,277 614,286.912088 614,303.10989 C614,306.010989 613.512195,309.395604 613.02439,312.296703 L609.121951,334.054945 C605.707317,352.67033 597.414634,365 579.853659,365 Z M686.622276,406 L686.622276,334.230137 C686.622276,305.376712 705.024213,289.858904 727.300242,289.858904 C751.513317,289.858904 763.377724,305.134247 763.377724,330.108219 L763.377724,406 L775,406 L775,328.653425 C775,298.10274 757.324455,279.917808 729.96368,279.917808 C707.445521,279.917808 693.401937,290.343836 686.622276,306.589041 L686.622276,229 L675,229 L675,406 L686.622276,406 Z M834.922252,406 L848.752011,327.535714 L883.690349,406 L934.156836,406 L964,237 L912.077748,237 L898.247989,315.464286 L863.309651,237 L812.843164,237 L783,406 L834.922252,406 Z M1011,409 C1044.39726,409 1064,385.479323 1064,355.411654 L1064,333.588346 C1064,303.520677 1044.39726,280 1011,280 C977.60274,280 958,303.520677 958,333.588346 L958,355.411654 C958,385.479323 977.60274,409 1011,409 Z M1011,400 C984.052023,400 969,380.859031 969,355.418502 L969,334.581498 C969,309.140969 984.052023,290 1011,290 C1037.94798,290 1053,309.140969 1053,334.581498 L1053,355.418502 C1053,380.859031 1037.94798,400 1011,400 Z"></path>
        </g>
    </g>
</svg>